HIERARCHY
ROOT SpineBase
{
  OFFSET 0.000000 0.000000 0.000000
  CHANNELS 6 Xposition Yposition Zposition Zrotation Xrotation Yrotation
  JOINT SpineMid
  {
    OFFSET 0.000000 29.217110 0.000000
    CHANNELS 3 Zrotation Xrotation Yrotation
    JOINT SpineShoulder
    {
      OFFSET -0.254517 21.727265 -0.619730
      CHANNELS 3 Zrotation Xrotation Yrotation
      JOINT Neck
      {
        OFFSET -0.214297 7.197389 -0.488625
        CHANNELS 3 Zrotation Xrotation Yrotation
        JOINT Head
        {
          OFFSET 3.229778 12.543909 4.719073
          CHANNELS 3 Zrotation Xrotation Yrotation
          End Site
          {
            OFFSET 0 0 0
          }
        }
      }
      JOINT ShoulderLeft
      {
        OFFSET -5.761313 -4.769489 -11.733025
        CHANNELS 3 Zrotation Xrotation Yrotation
        JOINT ElbowLeft
        {
          OFFSET -1.719198 -26.359913 -4.724103
          CHANNELS 3 Zrotation Xrotation Yrotation
          JOINT WristLeft
          {
            OFFSET 2.977928 -23.663294 -1.922753
            CHANNELS 3 Zrotation Xrotation Yrotation
            JOINT HandLeft
            {
              OFFSET 1.281119 -5.747113 3.518360
              CHANNELS 3 Zrotation Xrotation Yrotation
              JOINT HandTipLeft
              {
                OFFSET 2.251162 -6.496177 0.011740
                CHANNELS 3 Zrotation Xrotation Yrotation
                End Site
                {
                  OFFSET 0 0 0
                }
              }
              JOINT ThumbLeft
              {
                OFFSET 4.427608 1.799853 -0.782486
                CHANNELS 3 Zrotation Xrotation Yrotation
                End Site
                {
                  OFFSET 0 0 0
                }
              }
            }
          }
        }
      }
      JOINT ShoulderRight
      {
        OFFSET 13.433720 -1.293905 7.360160
        CHANNELS 3 Zrotation Xrotation Yrotation
        JOINT ElbowRight
        {
          OFFSET 3.817172 -29.832077 3.858659
          CHANNELS 3 Zrotation Xrotation Yrotation
          JOINT WristRight
          {
            OFFSET -0.142528 -23.205491 2.332731
            CHANNELS 3 Zrotation Xrotation Yrotation
            JOINT HandRight
            {
              OFFSET -0.094505 -6.287690 -1.782817
              CHANNELS 3 Zrotation Xrotation Yrotation
              JOINT HandTipRight
              {
                OFFSET 0.265140 -0.209901 -0.150497
                CHANNELS 3 Zrotation Xrotation Yrotation
                End Site
                {
                  OFFSET 0 0 0
                }
              }
              JOINT ThumbRight
              {
                OFFSET 0.248468 0.881930 -0.628309
                CHANNELS 3 Zrotation Xrotation Yrotation
                End Site
                {
                  OFFSET 0 0 0
                }
              }
            }
          }
        }
      }
    }
  }
  JOINT HipLeft
  {
    OFFSET -6.345344 1.097235 -6.993384
    CHANNELS 3 Zrotation Xrotation Yrotation
    JOINT KneeLeft
    {
      OFFSET 0.551864 -33.020251 3.877867
      CHANNELS 3 Zrotation Xrotation Yrotation
      JOINT AnkleLeft
      {
        OFFSET -2.050687 -30.710689 3.047281
        CHANNELS 3 Zrotation Xrotation Yrotation
        JOINT FootLeft
        {
          OFFSET 3.118156 -6.609390 -1.242113
          CHANNELS 3 Zrotation Xrotation Yrotation
          End Site
          {
            OFFSET 0 0 0
          }
        }
      }
    }
  }
  JOINT HipRight
  {
    OFFSET 4.542666 0.386890 0.600261
    CHANNELS 3 Zrotation Xrotation Yrotation
    JOINT KneeRight
    {
      OFFSET 12.545832 -16.249127 9.194139
      CHANNELS 3 Zrotation Xrotation Yrotation
      JOINT AnkleRight
      {
        OFFSET -10.728368 -38.613782 2.195998
        CHANNELS 3 Zrotation Xrotation Yrotation
        JOINT FootRight
        {
          OFFSET 5.166317 -2.238865 -9.740038
          CHANNELS 3 Zrotation Xrotation Yrotation
          End Site
          {
            OFFSET 0 0 0
          }
        }
      }
    }
  }
}
MOTION
Frames: 5
Frame Time: 0.033333
90.807430 70.556028 331.309395 4.066806 0.113416 -33.686374 -0.157604 -0.372000 33.794479 -0.864484 -0.055883 0.086606 -5.049971 1.061563 0.430845 0.000000 0.000000 0.000000 -3.808274 -0.584741 0.030254 6.045054 0.108507 -0.755234 -9.732076 10.504370 0.411603 7.084437 -15.955457 -0.584115 0.000000 0.000000 0.000000 0.000000 0.000000 0.000000 -2.864396 0.175684 -0.185036 -0.000000 0.000000 0.000000 40.575047 -38.723815 3.887779 -76.646652 1.712414 65.814537 0.000000 0.000000 0.000000 0.000000 0.000000 0.000000 -8.997908 -6.113892 32.394641 5.780830 -0.209514 0.712358 -1.376289 2.215676 1.487144 0.000000 0.000000 0.000000 -38.781345 -7.012729 20.676162 39.779956 -9.165512 14.168983 -47.673028 -50.380430 -22.234956 0.000000 0.000000 0.000000
90.831798 70.603434 331.242885 4.002724 0.110368 -34.133012 -0.094839 -0.316787 34.241648 -0.882895 -0.118941 0.085852 -4.927755 1.251912 0.356548 0.000000 0.000000 0.000000 -3.948712 -0.606945 0.063354 6.218558 0.233593 -0.792116 -10.085353 10.246071 0.162817 7.672516 -15.681953 -0.252980 0.000000 0.000000 0.000000 0.000000 0.000000 0.000000 -2.863063 0.228621 -0.182051 -0.000000 0.000000 0.000000 37.127175 -36.640796 2.664175 -74.252094 1.077206 63.519241 0.000000 0.000000 0.000000 0.000000 0.000000 0.000000 -8.837575 -6.373683 32.825331 5.852802 0.034514 0.714155 -0.696854 1.548234 1.024379 0.000000 0.000000 0.000000 -38.551197 -7.342082 20.955389 39.403519 -8.657710 13.997719 -48.985952 -51.359407 -23.617438 0.000000 0.000000 0.000000
90.857398 70.684364 331.216520 3.945303 0.071927 -34.277481 -0.050426 -0.258471 34.387008 -0.889658 -0.173565 0.085450 -4.827748 1.408918 0.300915 0.000000 0.000000 0.000000 -3.977384 -0.599157 0.075799 6.390438 0.146298 -0.831746 -10.986926 10.782668 -0.076481 9.067839 -15.277769 0.594425 0.000000 0.000000 0.000000 0.000000 0.000000 0.000000 -2.867783 0.297816 -0.178575 -0.000000 0.000000 0.000000 36.538279 -36.379806 2.516623 -71.770419 0.064627 54.387818 0.000000 0.000000 0.000000 0.000000 0.000000 0.000000 -8.865549 -6.428089 32.955071 5.991625 0.117687 0.726162 -0.095441 1.024067 0.659003 0.000000 0.000000 0.000000 -38.642024 -7.419905 20.992899 39.607604 -8.487510 14.062135 -48.870542 -50.933311 -24.285826 0.000000 0.000000 0.000000
90.846721 70.749301 331.164669 3.847937 0.081020 -34.033400 0.018174 -0.210491 34.142445 -0.871012 -0.221176 0.086078 -4.757825 1.491556 0.263752 0.000000 0.000000 0.000000 -3.940953 -0.612557 0.073614 6.374781 0.072949 -0.844771 -11.628910 11.053745 -0.325511 10.177838 -14.909631 1.254573 0.000000 0.000000 0.000000 0.000000 0.000000 0.000000 -2.873524 0.335699 -0.176874 -0.000000 0.000000 0.000000 36.702407 -37.174339 2.871785 -68.100731 -2.757136 35.882346 0.000000 0.000000 0.000000 0.000000 0.000000 0.000000 -8.890597 -6.380239 32.701272 6.146243 0.148773 0.740431 0.926371 0.214043 0.075954 0.000000 0.000000 0.000000 -38.833097 -7.345343 20.530787 39.804875 -7.741819 14.060773 -33.027594 -41.502834 -9.868374 0.000000 0.000000 0.000000
90.798933 70.812728 331.105055 3.729951 0.128177 -33.605728 0.084895 -0.192491 33.712842 -0.827538 -0.252291 0.087085 -4.698192 1.473761 0.250365 0.000000 0.000000 0.000000 -3.859259 -0.685085 0.065912 6.156355 -0.045767 -0.847159 -11.964823 11.469280 -0.468058 10.515397 -14.856359 1.603834 0.000000 0.000000 0.000000 0.000000 0.000000 0.000000 -2.865961 0.342188 -0.176027 -0.000000 0.000000 0.000000 38.064009 -38.992550 3.796270 -64.023566 -5.253389 13.353561 0.000000 0.000000 0.000000 0.000000 0.000000 0.000000 -8.855793 -6.235319 32.280189 6.205453 0.103324 0.746910 0.874758 0.192389 0.072534 0.000000 0.000000 0.000000 -39.137566 -7.142201 19.911060 40.477211 -7.317229 14.263740 -32.406673 -38.883467 -14.818675 0.000000 0.000000 0.000000
